<?xml version="1.0" encoding="utf-8"?>
<!-- Generator: Adobe Illustrator 26.1.0, SVG Export Plug-In . SVG Version: 6.00 Build 0)  -->
<svg version="1.1" id="Layer_1" xmlns="http://www.w3.org/2000/svg" xmlns:xlink="http://www.w3.org/1999/xlink" x="0px" y="0px"
	 viewBox="0 0 77.06 18.14" style="enable-background:new 0 0 77.06 18.14;" xml:space="preserve">
<style type="text/css">
	.st0{fill:#CCCCCB;}
</style>
<g>
	<path class="st0" d="M0,12.69c0-0.93,0.11-1.85,0.33-2.75c0.22-0.9,0.53-1.76,0.93-2.56s0.88-1.55,1.43-2.22S3.85,3.9,4.51,3.4
		c0.66-0.49,1.36-0.88,2.11-1.15c0.75-0.27,1.51-0.41,2.3-0.41c0.92,0,1.64,0.19,2.15,0.58c0.51,0.39,0.77,0.93,0.77,1.62
		c0,0.27-0.04,0.54-0.11,0.82c-0.07,0.28-0.18,0.56-0.32,0.83c-0.14,0.27-0.3,0.54-0.49,0.79c-0.19,0.25-0.39,0.47-0.62,0.66
		C9.95,7.09,9.65,6.93,9.4,6.67C9.15,6.41,8.99,6.11,8.92,5.76c0.47-0.39,0.84-0.79,1.11-1.21c0.27-0.42,0.41-0.8,0.41-1.15
		c0-0.59-0.37-0.88-1.1-0.88c-0.31,0-0.62,0.06-0.95,0.19C8.06,2.84,7.73,3.01,7.4,3.24c-0.33,0.23-0.66,0.5-0.97,0.82
		c-0.31,0.32-0.6,0.67-0.87,1.06c-1.85,2.67-2.78,5.39-2.78,8.18c0,0.99,0.15,1.78,0.46,2.38c0.31,0.6,0.71,0.95,1.22,1.06
		c0.57-0.13,1.3-0.5,2.18-1.1s1.84-1.38,2.88-2.34c0.13,0.13,0.21,0.27,0.24,0.42c-0.39,0.5-0.79,0.99-1.2,1.45
		c-0.41,0.46-0.82,0.89-1.23,1.27s-0.81,0.72-1.2,1.02c-0.39,0.29-0.76,0.52-1.09,0.68c-1.65,0-2.91-0.46-3.76-1.38
		C0.43,15.84,0,14.48,0,12.69z"/>
	<path class="st0" d="M11.04,16.26c0-0.47,0.05-1.02,0.14-1.65c0.09-0.63,0.23-1.31,0.41-2.03c0.18-0.72,0.39-1.47,0.64-2.26
		s0.52-1.57,0.83-2.36c0.27-0.71,0.58-1.42,0.93-2.14c0.35-0.72,0.74-1.43,1.15-2.12c0.41-0.69,0.84-1.35,1.29-1.98
		c0.45-0.63,0.9-1.2,1.35-1.72c0.21,0,0.44,0.03,0.69,0.08c0.25,0.05,0.49,0.12,0.72,0.21c0.23,0.09,0.45,0.19,0.64,0.31
		s0.35,0.24,0.47,0.36c-1,1.03-1.9,2.06-2.7,3.11s-1.43,2.03-1.9,2.95C15.45,7.53,15.22,8,15.01,8.44c-0.21,0.44-0.4,0.88-0.57,1.31
		c-0.17,0.43-0.33,0.87-0.47,1.3s-0.27,0.89-0.39,1.37c2.56-3.27,4.46-4.9,5.7-4.9c0.35,0,0.72,0.11,1.12,0.34
		c0.4,0.23,0.75,0.53,1.06,0.92c-0.41,0.45-0.84,1-1.28,1.64c-0.44,0.64-0.84,1.28-1.21,1.93c-0.37,0.65-0.67,1.25-0.9,1.8
		c-0.23,0.55-0.35,0.96-0.35,1.23c0,0.13,0.02,0.22,0.06,0.27c0.04,0.05,0.13,0.07,0.26,0.07c0.2,0,0.36-0.03,0.48-0.08
		s0.19-0.08,0.22-0.08c0.07,0.11,0.11,0.18,0.12,0.22c0.01,0.04,0.02,0.07,0.02,0.1c0,0.05-0.08,0.13-0.24,0.23
		c-0.16,0.1-0.35,0.2-0.57,0.3c-0.22,0.1-0.44,0.19-0.65,0.27s-0.37,0.12-0.48,0.12c-0.13,0-0.27-0.04-0.4-0.11
		s-0.25-0.17-0.35-0.29c-0.1-0.12-0.18-0.25-0.24-0.4c-0.06-0.15-0.09-0.3-0.09-0.46c0-0.2,0.06-0.5,0.17-0.89
		c0.11-0.39,0.27-0.85,0.47-1.38c0.2-0.53,0.44-1.1,0.72-1.73c0.28-0.63,0.58-1.27,0.9-1.92c0-0.05-0.03-0.08-0.08-0.08
		c-0.04,0-0.14,0.05-0.31,0.16c-0.17,0.11-0.32,0.21-0.47,0.32c-0.48,0.36-0.96,0.8-1.45,1.33c-0.49,0.53-0.96,1.1-1.42,1.73
		c-0.46,0.63-0.89,1.29-1.3,1.99c-0.41,0.7-0.76,1.4-1.05,2.11c-0.04,0.09-0.1,0.18-0.18,0.26c-0.08,0.08-0.15,0.12-0.2,0.12
		c-0.04,0-0.1-0.05-0.17-0.14c-0.07-0.09-0.14-0.21-0.2-0.35c-0.06-0.14-0.12-0.28-0.17-0.43S11.04,16.37,11.04,16.26z"/>
	<path class="st0" d="M28.3,8.52c0.13,0,0.29,0.02,0.47,0.07s0.34,0.11,0.49,0.18c0.15,0.07,0.27,0.15,0.37,0.23
		s0.15,0.15,0.15,0.22c-0.27,0.56-0.51,1.12-0.74,1.69c-0.23,0.57-0.42,1.11-0.58,1.63s-0.28,1.01-0.37,1.46
		c-0.09,0.45-0.13,0.85-0.13,1.18c0,0.37,0.04,0.68,0.12,0.93c0.08,0.25,0.21,0.42,0.4,0.53c-0.16,0.11-0.37,0.19-0.62,0.26
		S27.38,17,27.18,17c-0.72,0-1.08-0.49-1.08-1.48c0-0.76,0.25-1.8,0.76-3.12c-0.27,0.61-0.57,1.19-0.92,1.72
		c-0.35,0.54-0.7,1.01-1.06,1.42c-0.36,0.41-0.72,0.75-1.09,1.01c-0.37,0.26-0.7,0.41-1.01,0.47c-0.49,0-0.89-0.22-1.2-0.67
		c-0.31-0.45-0.46-1.02-0.46-1.72c0-0.75,0.16-1.54,0.48-2.37c0.32-0.83,0.73-1.6,1.23-2.31c0.5-0.71,1.04-1.3,1.63-1.78
		c0.59-0.48,1.15-0.71,1.7-0.71c0.13,0.04,0.28,0.12,0.45,0.24c0.17,0.12,0.33,0.26,0.48,0.42s0.28,0.32,0.39,0.49
		c0.11,0.17,0.17,0.31,0.18,0.43c-0.53,0.08-1.08,0.34-1.65,0.78s-1.08,0.97-1.54,1.59c-0.46,0.62-0.84,1.28-1.13,1.99
		c-0.29,0.7-0.44,1.36-0.44,1.98c0,0.25,0.09,0.41,0.28,0.48c0.39-0.08,0.83-0.41,1.34-0.99c0.51-0.58,1.12-1.48,1.84-2.69
		c0.13-0.24,0.28-0.51,0.45-0.8c0.17-0.29,0.34-0.6,0.51-0.92c0.17-0.32,0.34-0.64,0.51-0.97C28,9.14,28.15,8.83,28.3,8.52z"/>
	<path class="st0" d="M31.64,8.94c-0.07-0.08-0.13-0.25-0.18-0.51c-0.05-0.26-0.08-0.48-0.08-0.67c0.35,0.05,0.68,0.08,1,0.08
		c0.32,0,0.61,0,0.88,0c0.2-0.4,0.42-0.79,0.65-1.18c0.23-0.39,0.46-0.74,0.68-1.07c0.22-0.32,0.43-0.6,0.62-0.82
		c0.19-0.22,0.34-0.37,0.45-0.43c0.13,0,0.3,0.02,0.51,0.07c0.21,0.05,0.42,0.11,0.63,0.18s0.41,0.15,0.58,0.23
		c0.17,0.08,0.29,0.16,0.36,0.24c-0.4,0.5-0.74,0.97-1.03,1.4c-0.29,0.43-0.6,0.92-0.93,1.48c0.27,0,0.54,0,0.81,0
		s0.55-0.02,0.83-0.06c0.07,0.07,0.12,0.15,0.16,0.25c0.04,0.1,0.06,0.2,0.06,0.31c-0.65,0.25-1.45,0.38-2.38,0.38
		c-0.33,0.64-0.63,1.28-0.89,1.91c-0.26,0.64-0.48,1.25-0.66,1.83c-0.18,0.59-0.32,1.14-0.42,1.66c-0.1,0.52-0.15,0.99-0.15,1.4
		c0,0.59,0.22,0.92,0.66,0.98c0.4-0.05,0.78-0.15,1.14-0.3c0.36-0.15,0.68-0.33,0.96-0.56c0.08,0.12,0.13,0.22,0.14,0.3
		c-0.08,0.12-0.22,0.26-0.41,0.42c-0.19,0.16-0.4,0.31-0.63,0.47c-0.23,0.15-0.45,0.28-0.66,0.39c-0.21,0.11-0.37,0.17-0.48,0.18
		c-0.33,0-0.67-0.07-1-0.2c-0.33-0.13-0.64-0.3-0.91-0.5c-0.27-0.2-0.5-0.42-0.67-0.67c-0.17-0.25-0.26-0.49-0.26-0.73
		c0-0.32,0.04-0.72,0.13-1.21s0.21-1.02,0.37-1.59s0.35-1.17,0.56-1.8c0.21-0.63,0.45-1.25,0.7-1.86H31.64z"/>
	<path class="st0" d="M39.28,17.22c-0.07-0.55-0.12-1.14-0.15-1.79c-0.03-0.65-0.05-1.25-0.05-1.81c0-0.89,0.03-1.75,0.09-2.57
		c0.06-0.82,0.13-1.68,0.22-2.58c0.09-0.9,0.18-1.88,0.29-2.94c0.11-1.06,0.2-2.28,0.28-3.67c0.17,0,0.42,0.05,0.75,0.15
		c0.33,0.1,0.66,0.22,0.99,0.35c0.33,0.13,0.63,0.27,0.88,0.41s0.4,0.26,0.44,0.35c-0.23,0.52-0.43,1.2-0.61,2.05
		c-0.18,0.85-0.33,1.77-0.45,2.77c-0.12,1-0.21,2.03-0.28,3.08c-0.07,1.05-0.1,2.04-0.1,2.96c0,0.43,0.01,0.85,0.02,1.26
		s0.03,0.79,0.06,1.14c0.28-0.41,0.6-1,0.97-1.77c0.37-0.77,0.75-1.62,1.14-2.57c0.39-0.95,0.79-1.94,1.18-2.97
		c0.39-1.03,0.76-2.02,1.09-2.96c0.33-0.94,0.62-1.79,0.85-2.54s0.4-1.32,0.49-1.71c0.17,0,0.43,0.05,0.77,0.15
		c0.34,0.1,0.67,0.22,1,0.35c0.33,0.13,0.62,0.27,0.87,0.41s0.39,0.26,0.42,0.35c-0.23,0.52-0.43,1.2-0.61,2.05
		c-0.18,0.85-0.33,1.77-0.45,2.77c-0.12,1-0.21,2.03-0.28,3.08c-0.07,1.05-0.1,2.04-0.1,2.96c0,0.39,0,0.77,0.01,1.15
		c0.01,0.38,0.02,0.72,0.05,1.03c0.43-1.11,0.87-2.2,1.33-3.29c0.46-1.09,0.92-2.13,1.37-3.12c0.45-0.99,0.89-1.92,1.32-2.78
		c0.43-0.86,0.82-1.63,1.18-2.3C54.62,4,54.93,3.44,55.2,3c0.27-0.44,0.47-0.73,0.62-0.88c0.31,0.04,0.62,0.15,0.95,0.33
		c0.33,0.18,0.62,0.41,0.87,0.69c-0.39,0.31-0.83,0.81-1.32,1.51c-0.49,0.7-1,1.51-1.52,2.43s-1.04,1.9-1.57,2.94
		s-1.02,2.05-1.47,3.04c-0.45,0.99-0.86,1.91-1.21,2.76c-0.35,0.85-0.62,1.54-0.81,2.06c-0.35,0.16-0.69,0.24-1.02,0.24
		c-0.43-0.05-0.83-0.16-1.21-0.32c-0.38-0.16-0.65-0.35-0.81-0.58c-0.04-0.21-0.07-0.46-0.1-0.75s-0.05-0.57-0.06-0.85
		s-0.02-0.55-0.03-0.81c-0.01-0.26-0.01-0.48-0.01-0.67c0-1.19,0.05-2.4,0.14-3.63s0.21-2.56,0.34-3.97
		c-0.31,0.91-0.65,1.88-1.02,2.92c-0.37,1.04-0.76,2.07-1.17,3.09s-0.82,1.99-1.24,2.92s-0.83,1.73-1.23,2.41
		c-0.35,0.16-0.69,0.24-1.02,0.24c-0.43-0.05-0.83-0.16-1.21-0.32C39.71,17.64,39.44,17.45,39.28,17.22z"/>
	<path class="st0" d="M55.06,15.26c0-0.12,0.01-0.27,0.03-0.45c0.02-0.18,0.06-0.42,0.11-0.72c0.05-0.3,0.12-0.66,0.21-1.09
		c0.09-0.43,0.2-0.94,0.33-1.54c0.03-0.13,0.09-0.35,0.18-0.64s0.22-0.6,0.37-0.93s0.34-0.64,0.56-0.95
		c0.22-0.31,0.48-0.53,0.79-0.68c0.23,0.05,0.53,0.19,0.9,0.41c0.37,0.22,0.69,0.52,0.96,0.91c-0.31,0.35-0.56,0.69-0.77,1.04
		s-0.39,0.71-0.56,1.08c-0.17,0.37-0.32,0.76-0.46,1.16c-0.14,0.4-0.3,0.82-0.47,1.26c-0.15,0.37-0.28,0.76-0.4,1.15
		c-0.12,0.39-0.19,0.74-0.2,1.03c0,0.24,0,0.41-0.01,0.51s-0.04,0.15-0.11,0.15c-0.05,0-0.16-0.03-0.32-0.1
		c-0.16-0.07-0.32-0.17-0.49-0.31c-0.17-0.14-0.32-0.32-0.45-0.53C55.13,15.81,55.06,15.55,55.06,15.26z M58.88,6.58
		c0-0.08,0.02-0.2,0.06-0.36c-0.07-0.07-0.12-0.17-0.17-0.3c-0.05-0.13-0.07-0.25-0.07-0.36c0-0.12,0.02-0.28,0.05-0.49
		s0.08-0.43,0.13-0.67c0.05-0.24,0.12-0.49,0.2-0.75c0.08-0.26,0.16-0.5,0.24-0.71c0.16,0,0.36,0.04,0.59,0.13
		c0.23,0.09,0.47,0.2,0.71,0.34c0.24,0.14,0.46,0.29,0.66,0.46c0.2,0.17,0.35,0.32,0.46,0.47c-0.15,0.15-0.34,0.35-0.58,0.61
		c-0.24,0.26-0.47,0.53-0.7,0.82c-0.23,0.29-0.43,0.56-0.62,0.81c-0.19,0.25-0.31,0.43-0.36,0.54c-0.16-0.03-0.3-0.1-0.42-0.21
		S58.88,6.69,58.88,6.58z"/>
	<path class="st0" d="M60.8,8.94c-0.07-0.08-0.13-0.25-0.18-0.51c-0.05-0.26-0.08-0.48-0.08-0.67c0.35,0.05,0.68,0.08,1,0.08
		c0.32,0,0.61,0,0.88,0c0.2-0.4,0.42-0.79,0.65-1.18c0.23-0.39,0.46-0.74,0.68-1.07c0.22-0.32,0.43-0.6,0.62-0.82
		c0.19-0.22,0.34-0.37,0.45-0.43c0.13,0,0.3,0.02,0.51,0.07c0.21,0.05,0.42,0.11,0.63,0.18s0.41,0.15,0.58,0.23
		c0.17,0.08,0.29,0.16,0.36,0.24c-0.4,0.5-0.74,0.97-1.03,1.4c-0.29,0.43-0.6,0.92-0.93,1.48c0.27,0,0.54,0,0.81,0
		s0.55-0.02,0.83-0.06c0.07,0.07,0.12,0.15,0.16,0.25c0.04,0.1,0.06,0.2,0.06,0.31c-0.65,0.25-1.45,0.38-2.38,0.38
		c-0.33,0.64-0.63,1.28-0.89,1.91c-0.26,0.64-0.48,1.25-0.66,1.83c-0.18,0.59-0.32,1.14-0.42,1.66c-0.1,0.52-0.15,0.99-0.15,1.4
		c0,0.59,0.22,0.92,0.66,0.98c0.4-0.05,0.78-0.15,1.14-0.3c0.36-0.15,0.68-0.33,0.96-0.56c0.08,0.12,0.13,0.22,0.14,0.3
		c-0.08,0.12-0.22,0.26-0.41,0.42c-0.19,0.16-0.4,0.31-0.63,0.47c-0.23,0.15-0.45,0.28-0.66,0.39c-0.21,0.11-0.37,0.17-0.48,0.18
		c-0.33,0-0.67-0.07-1-0.2c-0.33-0.13-0.64-0.3-0.91-0.5c-0.27-0.2-0.5-0.42-0.67-0.67c-0.17-0.25-0.26-0.49-0.26-0.73
		c0-0.32,0.04-0.72,0.13-1.21s0.21-1.02,0.37-1.59s0.35-1.17,0.56-1.8c0.21-0.63,0.45-1.25,0.7-1.86H60.8z"/>
	<path class="st0" d="M66.64,16.26c0-0.47,0.05-1.02,0.14-1.65c0.09-0.63,0.23-1.31,0.41-2.03c0.18-0.72,0.39-1.47,0.64-2.26
		s0.52-1.57,0.83-2.36c0.27-0.71,0.58-1.42,0.93-2.14c0.35-0.72,0.74-1.43,1.15-2.12c0.41-0.69,0.84-1.35,1.29-1.98
		c0.45-0.63,0.9-1.2,1.35-1.72c0.21,0,0.44,0.03,0.69,0.08c0.25,0.05,0.49,0.12,0.72,0.21c0.23,0.09,0.45,0.19,0.64,0.31
		s0.35,0.24,0.47,0.36c-1,1.03-1.9,2.06-2.7,3.11s-1.43,2.03-1.9,2.95C71.05,7.53,70.82,8,70.61,8.44c-0.21,0.44-0.4,0.88-0.57,1.31
		c-0.17,0.43-0.33,0.87-0.47,1.3s-0.27,0.89-0.39,1.37c2.56-3.27,4.46-4.9,5.7-4.9c0.35,0,0.72,0.11,1.12,0.34
		c0.4,0.23,0.75,0.53,1.06,0.92c-0.41,0.45-0.84,1-1.28,1.64c-0.44,0.64-0.84,1.28-1.21,1.93c-0.37,0.65-0.67,1.25-0.9,1.8
		c-0.23,0.55-0.35,0.96-0.35,1.23c0,0.13,0.02,0.22,0.06,0.27c0.04,0.05,0.13,0.07,0.26,0.07c0.2,0,0.36-0.03,0.48-0.08
		s0.19-0.08,0.22-0.08c0.07,0.11,0.11,0.18,0.12,0.22c0.01,0.04,0.02,0.07,0.02,0.1c0,0.05-0.08,0.13-0.24,0.23
		c-0.16,0.1-0.35,0.2-0.57,0.3c-0.22,0.1-0.44,0.19-0.65,0.27s-0.37,0.12-0.48,0.12c-0.13,0-0.27-0.04-0.4-0.11
		s-0.25-0.17-0.35-0.29c-0.1-0.12-0.18-0.25-0.24-0.4c-0.06-0.15-0.09-0.3-0.09-0.46c0-0.2,0.06-0.5,0.17-0.89
		c0.11-0.39,0.27-0.85,0.47-1.38c0.2-0.53,0.44-1.1,0.72-1.73c0.28-0.63,0.58-1.27,0.9-1.92c0-0.05-0.03-0.08-0.08-0.08
		c-0.04,0-0.14,0.05-0.31,0.16c-0.17,0.11-0.32,0.21-0.47,0.32c-0.48,0.36-0.96,0.8-1.45,1.33c-0.49,0.53-0.96,1.1-1.42,1.73
		c-0.46,0.63-0.89,1.29-1.3,1.99c-0.41,0.7-0.76,1.4-1.05,2.11c-0.04,0.09-0.1,0.18-0.18,0.26c-0.08,0.08-0.15,0.12-0.2,0.12
		c-0.04,0-0.1-0.05-0.17-0.14c-0.07-0.09-0.14-0.21-0.2-0.35c-0.06-0.14-0.12-0.28-0.17-0.43S66.64,16.37,66.64,16.26z"/>
</g>
</svg>
